<?xml version="1.0" encoding="utf-8"?>
<!-- Generator: Adobe Illustrator 23.0.1, SVG Export Plug-In . SVG Version: 6.00 Build 0)  -->
<svg version="1.1" id="Layer_1" xmlns="http://www.w3.org/2000/svg" xmlns:xlink="http://www.w3.org/1999/xlink" x="0px" y="0px"
	 viewBox="0 0 512 512" style="enable-background:new 0 0 512 512;" xml:space="preserve">
<g>
	<g>
		<path d="M243.3,6.4l-38.5,54.9c-7,9.9,0.2,23.6,12.3,23.6l23.6,0l0.5,263c0,8.3,6.7,15,15,15c8.3,0,15-6.7,15-15l-0.5-263l23.6,0
			c12.2,0,19.2-13.8,12.2-23.7L267.8,6.3C261.9-2,249.3-2.2,243.3,6.4z"/>
	</g>
</g>
<g>
	<g>
		<path d="M352,81.4c-4.1,7.2-1.7,16.3,5.5,20.5c61,35.1,102,100.9,102.1,176.2c0.2,112.3-91,203.8-203.2,204
			c-112.3,0.2-203.8-91-204-203.2c-0.1-75.3,40.7-141.2,101.5-176.5c7.2-4.2,9.6-13.3,5.4-20.5c-4.2-7.2-13.3-9.6-20.5-5.4
			c-70,40.6-116.6,116.4-116.4,202.5c0.2,129.1,104.9,233.4,234,233.2c129.1-0.2,233.4-104.9,233.2-234
			c-0.2-86.2-47-161.8-117.1-202.1C365.3,71.7,356.1,74.2,352,81.4z"/>
	</g>
</g>
</svg>
