<?xml version="1.0" encoding="UTF-8"?><!DOCTYPE svg PUBLIC "-//W3C//DTD SVG 1.1//EN" "http://www.w3.org/Graphics/SVG/1.1/DTD/svg11.dtd"><svg xmlns="http://www.w3.org/2000/svg"><symbol id="icon-arrow-down" viewBox="0 0 284.929 284.929">
    <path d="M282.082 76.511l-14.274-14.273c-1.902-1.906-4.093-2.856-6.57-2.856-2.471 0-4.661.95-6.563 2.856L142.466 174.441 30.262 62.241c-1.903-1.906-4.093-2.856-6.567-2.856-2.475 0-4.665.95-6.567 2.856L2.856 76.515C.95 78.417 0 80.607 0 83.082c0 2.473.953 4.663 2.856 6.565l133.043 133.046c1.902 1.903 4.093 2.854 6.567 2.854s4.661-.951 6.562-2.854L282.082 89.647c1.902-1.903 2.847-4.093 2.847-6.565 0-2.475-.945-4.665-2.847-6.571z"/>
</symbol><symbol id="icon-arrow-filled" viewBox="0 0 340.533 340.533">
    <path d="M145.768 290.197c-6.137 0-12.25-5.831-13.412-7.002-4.194-3.092-115.082-86.691-127.269-98.856-4.422-4.444-5.203-8.894-5.074-11.856.288-7.089 5.768-11.935 6.389-12.463L129.738 57.946c1.351-1.474 7.617-7.611 13.577-7.611 2.717 0 9.031 1.243 9.031 12.691v52.623H326.47a11.595 11.595 0 0 1 1.903-.156c2.03 0 12.16.774 12.16 15.976v80.87c0 11.187-7.927 14.153-12.118 14.153H156.012v48.23c0 13.469-6.419 15.475-10.244 15.475zm0-9.746v4.87-4.87z"/>
</symbol><symbol id="icon-arrow-left" viewBox="0 0 284.935 284.936">
    <path d="M110.488 142.468L222.694 30.264c1.902-1.903 2.854-4.093 2.854-6.567s-.951-4.664-2.854-6.563L208.417 2.857C206.513.955 204.324 0 201.856 0c-2.475 0-4.664.955-6.567 2.857L62.24 135.9c-1.903 1.903-2.852 4.093-2.852 6.567 0 2.475.949 4.664 2.852 6.567l133.042 133.043c1.906 1.906 4.097 2.857 6.571 2.857 2.471 0 4.66-.951 6.563-2.857l14.277-14.267c1.902-1.903 2.851-4.094 2.851-6.57 0-2.472-.948-4.661-2.851-6.564L110.488 142.468z"/>
</symbol><symbol id="icon-arrow-right-2" viewBox="0 0 129 129">
    <path d="M40.4 121.3c-.8.8-1.8 1.2-2.9 1.2s-2.1-.4-2.9-1.2c-1.6-1.6-1.6-4.2 0-5.8l51-51-51-51c-1.6-1.6-1.6-4.2 0-5.8 1.6-1.6 4.2-1.6 5.8 0l53.9 53.9c1.6 1.6 1.6 4.2 0 5.8l-53.9 53.9z"/>
</symbol><symbol id="icon-arrow-right" viewBox="0 0 284.935 284.936">
    <path d="M222.701 135.9L89.652 2.857C87.748.955 85.557 0 83.084 0c-2.474 0-4.664.955-6.567 2.857L62.244 17.133c-1.906 1.903-2.855 4.089-2.855 6.567 0 2.478.949 4.664 2.855 6.567l112.204 112.204L62.244 254.677c-1.906 1.903-2.855 4.093-2.855 6.564 0 2.477.949 4.667 2.855 6.57l14.274 14.271c1.903 1.905 4.093 2.854 6.567 2.854 2.473 0 4.663-.951 6.567-2.854l133.042-133.044c1.902-1.902 2.854-4.093 2.854-6.567s-.945-4.664-2.847-6.571z"/>
</symbol><symbol id="icon-bell" viewBox="0 0 47.834 47.834">
    <path d="M46.878 41.834H.956l.005-1.005c.021-4.065 2.87-7.548 6.759-8.437V20.697C7.72 11.766 14.985 4.5 23.916 4.5c8.932 0 16.198 7.266 16.198 16.197v11.695c3.889.89 6.737 4.372 6.759 8.437l.005 1.005zm-43.836-2h41.75a6.72 6.72 0 0 0-5.8-5.61l-.878-.107v-13.42c0-7.828-6.369-14.197-14.198-14.197-7.828 0-14.196 6.369-14.196 14.197v13.419l-.878.107a6.718 6.718 0 0 0-5.8 5.611z"/>
    <path d="M21.125 5.988h-2V4.792A4.797 4.797 0 0 1 23.917 0a4.796 4.796 0 0 1 4.791 4.792v1.176h-2V4.792A2.795 2.795 0 0 0 23.917 2a2.796 2.796 0 0 0-2.792 2.792v1.196z"/>
    <path d="M23.903 47.834c-3.941 0-7.375-2.799-8.164-6.656l1.959-.4a6.353 6.353 0 0 0 6.205 5.057 6.327 6.327 0 0 0 6.228-5.18l1.967.361a8.325 8.325 0 0 1-8.195 6.818z"/>
    <path d="M8.72 32.231h3.682v2H8.72z"/>
    <path d="M18.167 32.231h20.947v2H18.167z"/>
</symbol><symbol id="icon-checked" viewBox="0 0 26 26">
    <path d="M.3 14c-.2-.2-.3-.5-.3-.7s.1-.5.3-.7l1.4-1.4c.4-.4 1-.4 1.4 0l.1.1 5.5 5.9c.2.2.5.2.7 0L22.8 3.3h.1c.4-.4 1-.4 1.4 0l1.4 1.4c.4.4.4 1 0 1.4l-16 16.6c-.2.2-.4.3-.7.3-.3 0-.5-.1-.7-.3L.5 14.3.3 14z"/>
</symbol><symbol id="icon-more" viewBox="0 0 408 408">
    <path d="M204 102c28.05 0 51-22.95 51-51S232.05 0 204 0s-51 22.95-51 51 22.95 51 51 51zm0 51c-28.05 0-51 22.95-51 51s22.95 51 51 51 51-22.95 51-51-22.95-51-51-51zm0 153c-28.05 0-51 22.95-51 51s22.95 51 51 51 51-22.95 51-51-22.95-51-51-51z"/>
</symbol></svg>