<?xml version="1.0" encoding="UTF-8"?><!DOCTYPE svg PUBLIC "-//W3C//DTD SVG 1.1//EN" "http://www.w3.org/Graphics/SVG/1.1/DTD/svg11.dtd"><svg xmlns="http://www.w3.org/2000/svg"><defs>
        <style>
            .cls-1{fill:#fbad30}
        </style>
    </defs><symbol id="icon-arrow-down" viewBox="0 0 284.929 284.929">
    <path d="M282.082 76.511l-14.274-14.273c-1.902-1.906-4.093-2.856-6.57-2.856-2.471 0-4.661.95-6.563 2.856L142.466 174.441 30.262 62.241c-1.903-1.906-4.093-2.856-6.567-2.856-2.475 0-4.665.95-6.567 2.856L2.856 76.515C.95 78.417 0 80.607 0 83.082c0 2.473.953 4.663 2.856 6.565l133.043 133.046c1.902 1.903 4.093 2.854 6.567 2.854s4.661-.951 6.562-2.854L282.082 89.647c1.902-1.903 2.847-4.093 2.847-6.565 0-2.475-.945-4.665-2.847-6.571z"/>
</symbol><symbol id="icon-arrow-filled" viewBox="0 0 340.533 340.533">
    <path d="M145.768 290.197c-6.137 0-12.25-5.831-13.412-7.002-4.194-3.092-115.082-86.691-127.269-98.856-4.422-4.444-5.203-8.894-5.074-11.856.288-7.089 5.768-11.935 6.389-12.463L129.738 57.946c1.351-1.474 7.617-7.611 13.577-7.611 2.717 0 9.031 1.243 9.031 12.691v52.623H326.47a11.595 11.595 0 0 1 1.903-.156c2.03 0 12.16.774 12.16 15.976v80.87c0 11.187-7.927 14.153-12.118 14.153H156.012v48.23c0 13.469-6.419 15.475-10.244 15.475zm0-9.746v4.87-4.87z"/>
</symbol><symbol id="icon-arrow-left-circle" viewBox="0 0 476.737 476.737">
    <path d="M238.369 0C106.726 0 0 106.726 0 238.369c0 131.675 106.726 238.369 238.369 238.369 131.675 0 238.369-106.694 238.369-238.369C476.737 106.726 370.043 0 238.369 0zm50.852 330.252c6.198 6.198 6.198 16.273 0 22.47s-16.273 6.198-22.47 0L163.68 249.651c-3.115-3.115-4.64-7.183-4.64-11.283s1.526-8.168 4.64-11.283l103.07-103.07c6.198-6.198 16.273-6.198 22.47 0 6.198 6.198 6.198 16.273 0 22.47l-91.883 91.883 91.884 91.884z"/>
</symbol><symbol id="icon-arrow-left" viewBox="0 0 284.935 284.936">
    <path d="M110.488 142.468L222.694 30.264c1.902-1.903 2.854-4.093 2.854-6.567s-.951-4.664-2.854-6.563L208.417 2.857C206.513.955 204.324 0 201.856 0c-2.475 0-4.664.955-6.567 2.857L62.24 135.9c-1.903 1.903-2.852 4.093-2.852 6.567 0 2.475.949 4.664 2.852 6.567l133.042 133.043c1.906 1.906 4.097 2.857 6.571 2.857 2.471 0 4.66-.951 6.563-2.857l14.277-14.267c1.902-1.903 2.851-4.094 2.851-6.57 0-2.472-.948-4.661-2.851-6.564L110.488 142.468z"/>
</symbol><symbol id="icon-arrow-right-2" viewBox="0 0 129 129">
    <path d="M40.4 121.3c-.8.8-1.8 1.2-2.9 1.2s-2.1-.4-2.9-1.2c-1.6-1.6-1.6-4.2 0-5.8l51-51-51-51c-1.6-1.6-1.6-4.2 0-5.8 1.6-1.6 4.2-1.6 5.8 0l53.9 53.9c1.6 1.6 1.6 4.2 0 5.8l-53.9 53.9z"/>
</symbol><symbol id="icon-arrow-right-circle" viewBox="0 0 455.992 455.992">
    <path d="M227.996 0C102.081 0 0 102.081 0 227.996c0 125.945 102.081 227.996 227.996 227.996 125.945 0 227.996-102.051 227.996-227.996C455.992 102.081 353.941 0 227.996 0zm71.439 238.788l-98.585 98.585c-5.928 5.897-15.565 5.897-21.492 0-5.928-5.928-5.928-15.595 0-21.492l87.885-87.885-87.885-87.885c-5.928-5.928-5.928-15.565 0-21.492s15.565-5.928 21.492 0l98.585 98.585c3.04 2.979 4.469 6.901 4.438 10.792 0 3.922-1.459 7.813-4.438 10.792z"/>
</symbol><symbol id="icon-arrow-right" viewBox="0 0 284.935 284.936">
    <path d="M222.701 135.9L89.652 2.857C87.748.955 85.557 0 83.084 0c-2.474 0-4.664.955-6.567 2.857L62.244 17.133c-1.906 1.903-2.855 4.089-2.855 6.567 0 2.478.949 4.664 2.855 6.567l112.204 112.204L62.244 254.677c-1.906 1.903-2.855 4.093-2.855 6.564 0 2.477.949 4.667 2.855 6.57l14.274 14.271c1.903 1.905 4.093 2.854 6.567 2.854 2.473 0 4.663-.951 6.567-2.854l133.042-133.044c1.902-1.902 2.854-4.093 2.854-6.567s-.945-4.664-2.847-6.571z"/>
</symbol><symbol id="icon-bell" viewBox="0 0 47.834 47.834">
    <path d="M46.878 41.834H.956l.005-1.005c.021-4.065 2.87-7.548 6.759-8.437V20.697C7.72 11.766 14.985 4.5 23.916 4.5c8.932 0 16.198 7.266 16.198 16.197v11.695c3.889.89 6.737 4.372 6.759 8.437l.005 1.005zm-43.836-2h41.75a6.72 6.72 0 0 0-5.8-5.61l-.878-.107v-13.42c0-7.828-6.369-14.197-14.198-14.197-7.828 0-14.196 6.369-14.196 14.197v13.419l-.878.107a6.718 6.718 0 0 0-5.8 5.611z"/>
    <path d="M21.125 5.988h-2V4.792A4.797 4.797 0 0 1 23.917 0a4.796 4.796 0 0 1 4.791 4.792v1.176h-2V4.792A2.795 2.795 0 0 0 23.917 2a2.796 2.796 0 0 0-2.792 2.792v1.196z"/>
    <path d="M23.903 47.834c-3.941 0-7.375-2.799-8.164-6.656l1.959-.4a6.353 6.353 0 0 0 6.205 5.057 6.327 6.327 0 0 0 6.228-5.18l1.967.361a8.325 8.325 0 0 1-8.195 6.818z"/>
    <path d="M8.72 32.231h3.682v2H8.72z"/>
    <path d="M18.167 32.231h20.947v2H18.167z"/>
</symbol><symbol id="icon-checked-1" viewBox="0 0 44 44">
    <path d="M22 0C9.8 0 0 9.8 0 22s9.8 22 22 22 22-9.8 22-22S34.2 0 22 0zm12.7 15.1l-16 16.6c-.2.2-.4.3-.7.3-.3 0-.6-.1-.7-.3l-7.8-8.4-.2-.2c-.2-.2-.3-.5-.3-.7s.1-.5.3-.7l1.4-1.4c.4-.4 1-.4 1.4 0l.1.1 5.5 5.9c.2.2.5.2.7 0l13.4-13.9h.1c.4-.4 1-.4 1.4 0l1.4 1.4c.4.3.4.9 0 1.3z"/>
</symbol><symbol id="icon-checked" viewBox="0 0 26 26">
    <path d="M.3 14c-.2-.2-.3-.5-.3-.7s.1-.5.3-.7l1.4-1.4c.4-.4 1-.4 1.4 0l.1.1 5.5 5.9c.2.2.5.2.7 0L22.8 3.3h.1c.4-.4 1-.4 1.4 0l1.4 1.4c.4.4.4 1 0 1.4l-16 16.6c-.2.2-.4.3-.7.3-.3 0-.5-.1-.7-.3L.5 14.3.3 14z"/>
</symbol><symbol id="icon-error" viewBox="0 0 510 510">
    <path d="M255 0C114.75 0 0 114.75 0 255s114.75 255 255 255 255-114.75 255-255S395.25 0 255 0zm25.5 382.5h-51v-51h51v51zm0-102h-51v-153h51v153z"/>
</symbol><symbol id="icon-feedback" viewBox="0 0 32.72 32.72">
    <title>
        feedback
    </title>
    <g data-name="Layer 2">
        <g data-name="Layer 1">
            <path d="M4.9 4.77a16.33 16.33 0 0 0-3 18.91l-1.9 9 9-1.91a16.3 16.3 0 1 0-4.13-26zM20.19 19.9l-2.31 5.74-4.14-4.59-6.17-.42 3.08-5.36-1.51-6 6 1.27 5.24-3.28.66 6.15 4.74 4z"/>
            <path d="M17.45 13.41l-1.57 1-1.81-.41.45 1.79-.92 1.61 1.84.12 1.25 1.38.69-1.72 1.68-.76-1.42-1.18z"/>
        </g>
    </g>
</symbol><symbol id="icon-logout" viewBox="0 0 512 512">
    <path d="M243.3 6.4l-38.5 54.9c-7 9.9.2 23.6 12.3 23.6h23.6l.5 263c0 8.3 6.7 15 15 15s15-6.7 15-15l-.5-263h23.6c12.2 0 19.2-13.8 12.2-23.7L267.8 6.3c-5.9-8.3-18.5-8.5-24.5.1z"/>
    <path d="M352 81.4c-4.1 7.2-1.7 16.3 5.5 20.5 61 35.1 102 100.9 102.1 176.2.2 112.3-91 203.8-203.2 204-112.3.2-203.8-91-204-203.2-.1-75.3 40.7-141.2 101.5-176.5 7.2-4.2 9.6-13.3 5.4-20.5-4.2-7.2-13.3-9.6-20.5-5.4C68.8 117.1 22.2 192.9 22.4 279c.2 129.1 104.9 233.4 234 233.2 129.1-.2 233.4-104.9 233.2-234-.2-86.2-47-161.8-117.1-202.1-7.2-4.4-16.4-1.9-20.5 5.3z"/>
</symbol><symbol id="icon-more" viewBox="0 0 408 408">
    <path d="M204 102c28.05 0 51-22.95 51-51S232.05 0 204 0s-51 22.95-51 51 22.95 51 51 51zm0 51c-28.05 0-51 22.95-51 51s22.95 51 51 51 51-22.95 51-51-22.95-51-51-51zm0 153c-28.05 0-51 22.95-51 51s22.95 51 51 51 51-22.95 51-51-22.95-51-51-51z"/>
</symbol><symbol id="icon-plus" viewBox="0 0 491.86 491.86">
    <path d="M465.167 211.614H280.245V26.691c0-8.424-11.439-26.69-34.316-26.69s-34.316 18.267-34.316 26.69v184.924H26.69C18.267 211.614 0 223.053 0 245.929s18.267 34.316 26.69 34.316h184.924v184.924c0 8.422 11.438 26.69 34.316 26.69s34.316-18.268 34.316-26.69V280.245H465.17c8.422 0 26.69-11.438 26.69-34.316s-18.27-34.315-26.693-34.315z"/>
</symbol><symbol id="icon-settings" viewBox="0 0 268.765 268.765">
    <path d="M267.92 119.461c-.425-3.778-4.83-6.617-8.639-6.617-12.315 0-23.243-7.231-27.826-18.414-4.682-11.454-1.663-24.812 7.515-33.231a7.463 7.463 0 0 0 .817-10.133 132.977 132.977 0 0 0-21.289-21.5c-3.063-2.458-7.557-2.116-10.213.825-8.01 8.871-22.398 12.168-33.516 7.529-11.57-4.867-18.866-16.591-18.152-29.176a7.455 7.455 0 0 0-6.595-7.849 134.163 134.163 0 0 0-30.232-.08 7.478 7.478 0 0 0-6.654 7.689c.438 12.461-6.946 23.98-18.401 28.672-10.985 4.487-25.272 1.218-33.266-7.574-2.642-2.896-7.063-3.252-10.141-.853a133.478 133.478 0 0 0-21.74 21.493c-2.481 3.086-2.116 7.559.802 10.214 9.353 8.47 12.373 21.944 7.514 33.53-4.639 11.046-16.109 18.165-29.24 18.165-4.261-.137-7.296 2.723-7.762 6.597a134.618 134.618 0 0 0-.058 30.561c.422 3.794 4.961 6.608 8.812 6.608 11.702-.299 22.937 6.946 27.65 18.415 4.698 11.454 1.678 24.804-7.514 33.23a7.469 7.469 0 0 0-.817 10.126 133.459 133.459 0 0 0 21.259 21.508c3.079 2.481 7.559 2.131 10.228-.81 8.04-8.893 22.427-12.184 33.501-7.536 11.599 4.852 18.895 16.575 18.181 29.167a7.464 7.464 0 0 0 6.595 7.85 133.572 133.572 0 0 0 30.233.081 7.479 7.479 0 0 0 6.653-7.696c-.451-12.454 6.946-23.973 18.386-28.657 11.059-4.517 25.286-1.211 33.281 7.572a7.51 7.51 0 0 0 10.142.848 133.787 133.787 0 0 0 21.74-21.494 7.461 7.461 0 0 0-.803-10.213c-9.353-8.47-12.388-21.946-7.529-33.524 4.568-10.899 15.612-18.217 27.491-18.217l1.662.043c3.853.313 7.398-2.655 7.865-6.588a134.504 134.504 0 0 0 .06-30.561zm-133.325 60.03c-24.718 0-44.824-20.106-44.824-44.824 0-24.717 20.106-44.824 44.824-44.824 24.717 0 44.823 20.107 44.823 44.824 0 24.718-20.106 44.824-44.823 44.824z" fill-rule="evenodd" clip-rule="evenodd"/>
</symbol><symbol id="icon-upadte" viewBox="0 0 42.25 42.25">
    
    <title>
        upadte
    </title>
    <g id="Layer_2" data-name="Layer 2">
        <g id="Layer_1-2" data-name="Layer 1">
            <path class="cls-1" d="M21.12 42.25a21.13 21.13 0 1 1 21.13-21.13 21.15 21.15 0 0 1-21.13 21.13zm0-40.25a19.13 19.13 0 1 0 19.13 19.12A19.15 19.15 0 0 0 21.12 2z"/>
            <path class="cls-1" d="M18.18 35.32l2.63-11.2h-7.64l5.65-14.51.41-1.06h7.2L26 9.61l-4 9.46h7.07z"/>
        </g>
    </g>
</symbol><symbol id="icon-warning" viewBox="0 0 486.463 486.463">
    <path d="M243.225 333.382c-13.6 0-25 11.4-25 25s11.4 25 25 25c13.1 0 25-11.4 24.4-24.4.6-14.3-10.7-25.6-24.4-25.6z"/>
    <path d="M474.625 421.982c15.7-27.1 15.8-59.4.2-86.4l-156.6-271.2c-15.5-27.3-43.5-43.5-74.9-43.5s-59.4 16.3-74.9 43.4l-156.8 271.5c-15.6 27.3-15.5 59.8.3 86.9 15.6 26.8 43.5 42.9 74.7 42.9h312.8c31.3 0 59.4-16.3 75.2-43.6zm-34-19.6c-8.7 15-24.1 23.9-41.3 23.9h-312.8c-17 0-32.3-8.7-40.8-23.4-8.6-14.9-8.7-32.7-.1-47.7l156.8-271.4c8.5-14.9 23.7-23.7 40.9-23.7 17.1 0 32.4 8.9 40.9 23.8l156.7 271.4c8.4 14.6 8.3 32.2-.3 47.1z"/>
    <path d="M237.025 157.882c-11.9 3.4-19.3 14.2-19.3 27.3.6 7.9 1.1 15.9 1.7 23.8 1.7 30.1 3.4 59.6 5.1 89.7.6 10.2 8.5 17.6 18.7 17.6s18.2-7.9 18.7-18.2c0-6.2 0-11.9.6-18.2 1.1-19.3 2.3-38.6 3.4-57.9.6-12.5 1.7-25 2.3-37.5 0-4.5-.6-8.5-2.3-12.5-5.1-11.2-17-16.9-28.9-14.1z"/>
</symbol></svg>